<svg xmlns="http://www.w3.org/2000/svg" width="360.314" height="61" viewBox="0 0 360.314 61"><g transform="translate(3063 -1398)"><path d="M19.005,0h-4.62V-7.35a2.061,2.061,0,0,0-.437-1.365A1.793,1.793,0,0,0,12.5-9.24H7.175V0H2.555V-24.5h9.38a9.656,9.656,0,0,1,3.325.525,6.735,6.735,0,0,1,2.4,1.453,6.318,6.318,0,0,1,1.47,2.153,6.79,6.79,0,0,1,.508,2.625v.84a5.3,5.3,0,0,1-.805,2.817,5.1,5.1,0,0,1-2.485,2.013v.63a2.944,2.944,0,0,1,1.943.945,2.938,2.938,0,0,1,.717,2.03ZM7.175-13.65h4.41a3.7,3.7,0,0,0,2.555-.788,2.836,2.836,0,0,0,.875-2.222v-.42A2.922,2.922,0,0,0,14.14-19.2a3.421,3.421,0,0,0-2.555-.892H7.175ZM23.94-24.5H40.32v4.41H34.44V-4.41h5.88V0H23.94V-4.41h5.88V-20.09H23.94ZM49.98-9.24V0H45.36V-24.5h9.59a8.156,8.156,0,0,1,3.29.613,6.908,6.908,0,0,1,2.327,1.61A6.745,6.745,0,0,1,61.967-20,7.462,7.462,0,0,1,62.44-17.4v.84a7.85,7.85,0,0,1-.473,2.677,7.048,7.048,0,0,1-1.4,2.345A6.864,6.864,0,0,1,58.24-9.87a7.958,7.958,0,0,1-3.29.63Zm0-4.41h4.515a3.406,3.406,0,0,0,2.433-.84,2.846,2.846,0,0,0,.892-2.17v-.42a2.846,2.846,0,0,0-.892-2.17,3.406,3.406,0,0,0-2.433-.84H49.98ZM66.78-24.5H83.16v4.41H77.28V-4.41h5.88V0H66.78V-4.41h5.88V-20.09H66.78Zm20.58,9.52q0-4.76,2.4-7.385A8.531,8.531,0,0,1,96.39-24.99a8.531,8.531,0,0,1,6.632,2.625q2.4,2.625,2.4,7.385v5.46q0,4.9-2.4,7.455A8.653,8.653,0,0,1,96.39.49a8.653,8.653,0,0,1-6.632-2.555q-2.4-2.555-2.4-7.455ZM96.39-3.71a4.849,4.849,0,0,0,2.1-.4A3.51,3.51,0,0,0,99.855-5.25,4.561,4.561,0,0,0,100.59-7a11.076,11.076,0,0,0,.21-2.24v-6.02a9.227,9.227,0,0,0-.245-2.17,4.992,4.992,0,0,0-.77-1.75,3.81,3.81,0,0,0-1.365-1.172,4.348,4.348,0,0,0-2.03-.437,4.348,4.348,0,0,0-2.03.438A3.81,3.81,0,0,0,93-19.18a4.992,4.992,0,0,0-.77,1.75,9.227,9.227,0,0,0-.245,2.17v6.02A11.076,11.076,0,0,0,92.19-7a4.561,4.561,0,0,0,.735,1.75A3.51,3.51,0,0,0,94.29-4.113,4.849,4.849,0,0,0,96.39-3.71Zm15.96-7.91h10.92v3.99H112.35ZM131.39-24.5h15.47v4.41H136.01v5.6h10.43v4.41H136.01v5.67h11.27V0H131.39Zm24.71,0,4.13,10.01h.84L165.2-24.5h5.005l-5.04,11.9v.63L170.205,0H165.2l-4.13-10.08h-.84L156.1,0H151.1l5.04-11.97v-.63L151.1-24.5ZM178.5-9.24V0h-4.62V-24.5h9.59a8.156,8.156,0,0,1,3.29.613,6.908,6.908,0,0,1,2.327,1.61,6.745,6.745,0,0,1,1.4,2.275,7.463,7.463,0,0,1,.473,2.608v.84a7.85,7.85,0,0,1-.473,2.677,7.048,7.048,0,0,1-1.4,2.345A6.864,6.864,0,0,1,186.76-9.87a7.958,7.958,0,0,1-3.29.63Zm0-4.41h4.515a3.406,3.406,0,0,0,2.433-.84,2.846,2.846,0,0,0,.892-2.17v-.42a2.846,2.846,0,0,0-.892-2.17,3.406,3.406,0,0,0-2.433-.84H178.5ZM195.65-24.5h4.62V-4.41H211.4V0H195.65Zm20.23,9.52q0-4.76,2.4-7.385a8.531,8.531,0,0,1,6.633-2.625,8.531,8.531,0,0,1,6.632,2.625q2.4,2.625,2.4,7.385v5.46q0,4.9-2.4,7.455A8.653,8.653,0,0,1,224.91.49a8.653,8.653,0,0,1-6.633-2.555q-2.4-2.555-2.4-7.455Zm9.03,11.27a4.849,4.849,0,0,0,2.1-.4,3.51,3.51,0,0,0,1.365-1.137A4.561,4.561,0,0,0,229.11-7a11.076,11.076,0,0,0,.21-2.24v-6.02a9.227,9.227,0,0,0-.245-2.17,4.992,4.992,0,0,0-.77-1.75,3.81,3.81,0,0,0-1.365-1.172,4.348,4.348,0,0,0-2.03-.437,4.348,4.348,0,0,0-2.03.438,3.81,3.81,0,0,0-1.365,1.172,4.991,4.991,0,0,0-.77,1.75,9.227,9.227,0,0,0-.245,2.17v6.02A11.076,11.076,0,0,0,220.71-7a4.561,4.561,0,0,0,.735,1.75,3.51,3.51,0,0,0,1.365,1.137A4.849,4.849,0,0,0,224.91-3.71ZM254.625,0H250V-7.35a2.061,2.061,0,0,0-.437-1.365,1.793,1.793,0,0,0-1.452-.525h-5.32V0h-4.62V-24.5h9.38a9.656,9.656,0,0,1,3.325.525,6.735,6.735,0,0,1,2.4,1.453,6.318,6.318,0,0,1,1.47,2.153,6.79,6.79,0,0,1,.508,2.625v.84a5.3,5.3,0,0,1-.805,2.817,5.1,5.1,0,0,1-2.485,2.013v.63a2.944,2.944,0,0,1,1.943.945,2.937,2.937,0,0,1,.717,2.03Zm-11.83-13.65h4.41a3.7,3.7,0,0,0,2.555-.788,2.836,2.836,0,0,0,.875-2.222v-.42a2.922,2.922,0,0,0-.875-2.117,3.421,3.421,0,0,0-2.555-.892h-4.41ZM259.91-24.5h15.47v4.41H264.53v5.6h10.43v4.41H264.53v5.67H275.8V0H259.91ZM297.465,0h-4.62V-7.35a2.061,2.061,0,0,0-.437-1.365,1.793,1.793,0,0,0-1.453-.525h-5.32V0h-4.62V-24.5h9.38a9.656,9.656,0,0,1,3.325.525,6.735,6.735,0,0,1,2.4,1.453,6.318,6.318,0,0,1,1.47,2.153,6.789,6.789,0,0,1,.508,2.625v.84a5.3,5.3,0,0,1-.8,2.817,5.1,5.1,0,0,1-2.485,2.013v.63a2.944,2.944,0,0,1,1.943.945,2.937,2.937,0,0,1,.717,2.03Zm-11.83-13.65h4.41a3.7,3.7,0,0,0,2.555-.788,2.836,2.836,0,0,0,.875-2.222v-.42A2.922,2.922,0,0,0,292.6-19.2a3.421,3.421,0,0,0-2.555-.892h-4.41Z" transform="translate(-3000.781 1441.109)" fill="#fff"/><g transform="translate(-3063 1398.123)"><rect width="62" height="61" transform="translate(0 -0.123)" fill="none"/><path d="M0,31.063l17,9.921,17.013-9.921L17,54.736Zm0-3.185L17,0l17,27.878-17,9.93Z" transform="translate(13.567 2.967)" fill="#e1bbff"/></g></g></svg>