<svg xmlns="http://www.w3.org/2000/svg" width="129.8" height="93.6" viewBox="0 0 129.8 93.6"><path d="M119.1,36.7C107.5,26.8,87.6,20.3,65,20.3S22.5,26.8,10.9,36.7H0V56.9C0,77.2,29.1,93.6,64.9,93.6c35.9,0,64.9-16.4,64.9-36.7V36.7Z" fill="#df9a00"/><path d="M77.6,92.9V40.6H75.5V93.1C76.2,93,76.9,93,77.6,92.9Z" fill="#cc890c"/><path d="M85.6,91.7V40.6H83.5V92Q84.7,91.85,85.6,91.7Z" fill="#cc890c"/><path d="M93.7,89.8V40.6H91.6V90.3A15.986,15.986,0,0,0,93.7,89.8Z" fill="#cc890c"/><path d="M101.8,87.1V40.6H99.7V87.8A17.233,17.233,0,0,0,101.8,87.1Z" fill="#cc890c"/><path d="M109.9,83.4V40.6h-2.1V84.4C108.5,84.1,109.2,83.7,109.9,83.4Z" fill="#cc890c"/><path d="M118,78.1V40.6h-2.1v39Z" fill="#cc890c"/><path d="M124,72.2a30.626,30.626,0,0,0,2.1-2.9V40.6H124Z" fill="#cc890c"/><path d="M68.4,29.3H22.3a58.374,58.374,0,0,0-11.5,7.4H0V56.9C0,77.2,29.1,93.6,64.9,93.6c1.2,0,2.4,0,3.5-.1Z" fill="#b45517"/><path d="M2.8,67.5a30.245,30.245,0,0,0,2.1,3.3V40.6H2.8Z" fill="#773610"/><path d="M10.8,77.2c.7.6,1.4,1.1,2.1,1.7V40.6H10.8V77.2Z" fill="#773610"/><path d="M18.9,82.8A21.158,21.158,0,0,0,21,83.9V40.6H18.9Z" fill="#773610"/><path d="M27,86.7c.7.3,1.4.5,2.1.8V40.6H27Z" fill="#773610"/><path d="M35.1,89.5l2.1.6V40.6H35.1Z" fill="#773610"/><path d="M43.2,91.5c.7.1,1.4.3,2.1.4V40.6H43.2Z" fill="#773610"/><path d="M51.2,92.8a14.919,14.919,0,0,0,2.1.2V40.6H51.2Z" fill="#773610"/><path d="M59.3,93.5c.7,0,1.4.1,2.1.1v-53H59.3Z" fill="#773610"/><path d="M69.5,93.5V40.6H67.4V93.5A14.719,14.719,0,0,0,69.5,93.5Z" fill="#773610"/><ellipse cx="64.9" cy="36.7" rx="64.9" ry="36.7" transform="translate(0 0)" fill="#feca2a"/><ellipse cx="49.7" cy="28.1" rx="49.7" ry="28.1" transform="translate(15.2 7.5)" fill="#df9a00"/><path d="M64.9,11.3c26.3,0,47.8,11.6,49.6,26.2a11.483,11.483,0,0,0,.1-1.9c0-15.5-22.2-28.1-49.7-28.1-27.4,0-49.7,12.6-49.7,28.1,0,.6.1,1.3.1,1.9C17.1,22.9,38.6,11.3,64.9,11.3Z" fill="#b45517"/><path d="M64.9,0h-.4L56.2,8v3.8l-45.5,45a52.313,52.313,0,0,0,11,7.2l51-52.3V7.6L79.9,1A104,104,0,0,0,64.9,0Z" fill="#fff" opacity="0.33"/></svg>