<?xml version="1.0" standalone="no"?>
<!DOCTYPE svg PUBLIC "-//W3C//DTD SVG 20010904//EN"
 "http://www.w3.org/TR/2001/REC-SVG-20010904/DTD/svg10.dtd">
<svg version="1.0" xmlns="http://www.w3.org/2000/svg"
 width="300.000000pt" height="300.000000pt" viewBox="0 0 300.000000 300.000000"
 preserveAspectRatio="xMidYMid meet">
<metadata>
Created by potrace 1.14, written by Peter Selinger 2001-2017
</metadata>
<g transform="translate(0.000000,300.000000) scale(0.100000,-0.100000)"
fill="#000000" stroke="none">
<path d="M0 1500 l0 -1500 1500 0 1500 0 0 1500 0 1500 -1500 0 -1500 0 0
-1500z m1910 670 c226 -371 412 -679 413 -683 2 -7 -528 -323 -813 -486 -11
-7 -131 59 -429 233 -228 132 -414 245 -414 250 -1 8 826 1367 829 1363 1 -1
187 -306 414 -677z m-836 -1090 c217 -127 401 -233 410 -236 9 -4 172 85 422
231 223 130 407 235 409 233 4 -3 -810 -1137 -819 -1141 -3 -1 -170 228 -372
508 -475 661 -457 635 -450 635 4 0 184 -104 400 -230z"/>
</g>
</svg>
