<?xml version="1.0" standalone="no"?>
<!DOCTYPE svg PUBLIC "-//W3C//DTD SVG 20010904//EN"
 "http://www.w3.org/TR/2001/REC-SVG-20010904/DTD/svg10.dtd">
<svg version="1.0" xmlns="http://www.w3.org/2000/svg"
 width="300.000000pt" height="300.000000pt" viewBox="0 0 300.000000 300.000000"
 preserveAspectRatio="xMidYMid meet">
<metadata>
Created by potrace 1.14, written by Peter Selinger 2001-2017
</metadata>
<g transform="translate(0.000000,300.000000) scale(0.100000,-0.100000)"
fill="#000000" stroke="none">
<path d="M1468 2877 c-50 -80 -296 -484 -450 -737 -85 -140 -210 -344 -277
-453 -66 -109 -121 -201 -121 -205 1 -6 583 -350 739 -437 20 -11 58 -34 85
-49 l48 -29 37 18 c20 11 47 27 61 36 14 9 41 26 61 37 134 75 697 407 708
418 10 9 11 17 4 26 -21 25 -413 671 -413 679 0 5 -4 9 -9 9 -5 0 -11 8 -14
18 -3 9 -52 92 -109 184 -57 92 -148 241 -202 330 -55 90 -104 171 -111 180
-9 14 -14 11 -37 -25z"/>
<path d="M652 1264 c63 -90 831 -1159 837 -1166 4 -4 75 88 158 205 84 116
280 390 436 607 157 217 283 397 281 399 -2 2 -9 -1 -16 -7 -10 -8 -647 -380
-776 -454 -18 -10 -43 -25 -55 -32 -20 -13 -41 -3 -287 140 -146 85 -272 158
-280 163 -8 5 -71 42 -140 82 -69 40 -140 82 -159 93 l-34 20 35 -50z"/>
</g>
</svg>
